<?xml version="1.0" encoding="utf-8"?>
<!-- Generator: Adobe Illustrator 24.3.0, SVG Export Plug-In . SVG Version: 6.00 Build 0)  -->
<svg version="1.1" id="Layer_1" xmlns="http://www.w3.org/2000/svg" xmlns:xlink="http://www.w3.org/1999/xlink" x="0px" y="0px"
	 viewBox="0 0 295 163" style="enable-background:new 0 0 295 163;" xml:space="preserve">
<style type="text/css">
	.st0{fill:#1E1E1E;}
	.st1{fill:#BDBDBD;}
	.st2{fill:#4444E2;}
</style>
<g>
	<polygon class="st1" points="29.74,126.67 27.75,126.67 27.75,141.49 36.44,141.49 36.44,139.76 29.74,139.76 	"/>
	<rect x="38.04" y="130.48" class="st1" width="1.93" height="11.01"/>
	<rect x="38.04" y="126.15" class="st1" width="1.93" height="2.3"/>
	<polygon class="st1" points="46.92,139.52 46.88,139.52 43.62,130.48 41.74,130.48 45.76,141.49 47.93,141.49 51.96,130.48 
		50.18,130.48 	"/>
	<path class="st1" d="M57.43,130.28c-3.06,0-4.88,2.36-4.88,5.73c0,3.83,2.21,5.76,5.34,5.76c1.38,0,2.74-0.35,3.57-0.77v-1.49
		c-0.94,0.42-2.06,0.74-3.24,0.74c-2.34,0-3.7-1.25-3.72-3.72h7.29v-0.94C61.78,132.34,60.3,130.28,57.43,130.28z M54.5,135.14
		c0.07-1.97,1.14-3.35,2.98-3.35c1.64,0,2.56,1.2,2.56,3.35H54.5z"/>
	<path class="st1" d="M73.84,130.28c-3.06,0-4.88,2.36-4.88,5.73c0,3.83,2.21,5.76,5.34,5.76c1.38,0,2.74-0.35,3.57-0.77v-1.49
		c-0.94,0.42-2.06,0.74-3.24,0.74c-2.34,0-3.7-1.25-3.72-3.72h7.29v-0.94C78.2,132.34,76.71,130.28,73.84,130.28z M70.91,135.14
		c0.07-1.97,1.14-3.35,2.98-3.35c1.64,0,2.56,1.2,2.56,3.35H70.91z"/>
	<polygon class="st1" points="84.11,139.52 84.06,139.52 80.8,130.48 78.92,130.48 82.95,141.49 85.11,141.49 89.14,130.48 
		87.37,130.48 	"/>
	<path class="st1" d="M94.61,130.28c-3.06,0-4.88,2.36-4.88,5.73c0,3.83,2.21,5.76,5.34,5.76c1.38,0,2.74-0.35,3.57-0.77v-1.49
		c-0.94,0.42-2.06,0.74-3.24,0.74c-2.34,0-3.7-1.25-3.72-3.72h7.29v-0.94C98.97,132.34,97.48,130.28,94.61,130.28z M91.68,135.14
		c0.07-1.97,1.14-3.35,2.98-3.35c1.64,0,2.56,1.2,2.56,3.35H91.68z"/>
	<path class="st1" d="M103.19,132.45h-0.04v-1.97h-1.77v11.01h1.93v-7.79c1.16-1.03,2.52-1.58,3.83-1.58v-1.86
		C105.71,130.26,104.55,130.9,103.19,132.45z"/>
	<path class="st1" d="M112.93,139.52h-0.04l-3.26-9.04h-1.88l4.12,11.27c-0.68,1.97-1.2,2.74-2.67,2.74c-0.61,0-1.09-0.09-1.71-0.33
		v1.66c0.59,0.13,1.09,0.2,1.77,0.2c2.23,0,3.41-1.07,4.49-4.03l4.22-11.51h-1.77L112.93,139.52z"/>
	<path class="st1" d="M126.54,131.55h-0.02c-0.96-0.88-1.95-1.27-3.17-1.27c-2.96,0-4.75,2.23-4.75,5.89c0,3.44,1.71,5.56,4.44,5.56
		c1.33,0,2.54-0.53,3.61-1.6h0.02v1.36h1.79v-15.91h-1.93V131.55z M126.54,139.02c-0.79,0.77-1.84,1.18-2.82,1.18
		c-1.97,0-3.13-1.49-3.13-4.03c0-2.69,1.23-4.38,3.17-4.38c1.01,0,1.86,0.35,2.78,1.14V139.02z"/>
	<path class="st1" d="M139.48,139.65v-5.45c0-2.76-1.23-3.92-4.09-3.92c-1.07,0-2.28,0.17-3.48,0.53l-0.02,1.47
		c1.4-0.35,2.39-0.46,3.15-0.46c1.82,0,2.52,0.72,2.52,2.41v0.77h-2.45c-2.85,0-4.38,1.18-4.38,3.55c0,2.04,1.27,3.22,3.52,3.22
		c1.51,0,2.69-0.52,3.5-1.38c0.2,0.99,0.79,1.38,1.73,1.38c0.48,0,0.9-0.11,1.27-0.24v-1.18c-0.17,0.02-0.37,0.04-0.5,0.04
		C139.76,140.38,139.48,140.16,139.48,139.65z M137.55,139.28c-0.79,0.7-1.69,0.96-2.69,0.96c-1.51,0-2.21-0.66-2.21-1.88
		c0-1.49,0.96-2.12,2.87-2.12h2.04V139.28z"/>
	<path class="st1" d="M146.72,139.52h-0.04l-3.26-9.04h-1.88l4.12,11.27c-0.68,1.97-1.2,2.74-2.67,2.74c-0.61,0-1.09-0.09-1.71-0.33
		v1.66c0.59,0.13,1.09,0.2,1.77,0.2c2.23,0,3.41-1.07,4.49-4.03l4.22-11.51h-1.77L146.72,139.52z"/>
	<polygon class="st1" points="168.91,139.02 168.89,139.02 166.33,130.48 164.69,130.48 162.15,139.02 162.13,139.02 159.79,130.48 
		157.84,130.48 161.06,141.49 163,141.49 165.43,133.46 165.46,133.46 167.86,141.49 169.83,141.49 173.03,130.48 171.19,130.48 	
		"/>
	<rect x="174.89" y="126.15" class="st1" width="1.93" height="2.3"/>
	<rect x="174.89" y="130.48" class="st1" width="1.93" height="11.01"/>
	<path class="st1" d="M182.48,138.6v-6.7h3.44v-1.42h-3.44v-3h-1.93v3h-1.95v1.42h1.95v6.74c0,2.32,1.33,3.13,3.11,3.13
		c0.96,0,1.84-0.15,2.28-0.28v-1.51c-0.48,0.13-1.12,0.26-1.75,0.26C183.16,140.24,182.48,139.78,182.48,138.6z"/>
	<path class="st1" d="M193.56,130.28c-1.18,0-2.54,0.55-3.63,1.42v-6.13H188v15.91h1.93v-8.52c0.81-0.74,1.86-1.14,2.89-1.14
		c1.6,0,2.52,0.92,2.52,2.54v7.11h1.93v-7.2C197.26,131.62,195.99,130.28,193.56,130.28z"/>
	<polygon class="st1" points="205.9,141.49 207.89,141.49 207.89,135.12 213.52,135.12 213.52,133.37 207.89,133.37 207.89,128.4 
		214.11,128.4 214.11,126.67 205.9,126.67 	"/>
	<path class="st1" d="M218.29,139.06v-13.48h-1.93v13.99c0,1.14,0.57,2.12,2.3,2.12c0.39,0,0.96-0.04,1.51-0.22v-1.4
		c-0.28,0.09-0.57,0.11-0.83,0.11C218.68,140.18,218.29,139.98,218.29,139.06z"/>
	<path class="st1" d="M226.6,130.28c-3.2,0-5.36,2.32-5.36,5.73c0,3.41,2.15,5.76,5.28,5.76c3.2,0,5.47-2.34,5.47-5.67
		C231.99,132.58,229.86,130.28,226.6,130.28z M226.63,140.24c-2.04,0-3.39-1.66-3.39-4.27c0-2.52,1.38-4.16,3.39-4.16
		c1.99,0,3.37,1.69,3.37,4.27C230,138.56,228.62,140.24,226.63,140.24z"/>
	<polygon class="st1" points="244.2,139.02 244.18,139.02 241.62,130.48 239.98,130.48 237.44,139.02 237.41,139.02 235.07,130.48 
		233.12,130.48 236.34,141.49 238.29,141.49 240.72,133.46 240.74,133.46 243.15,141.49 245.12,141.49 248.31,130.48 246.48,130.48 
			"/>
	<path class="st1" d="M254.13,130.28c-3.06,0-4.88,2.36-4.88,5.73c0,3.83,2.21,5.76,5.34,5.76c1.38,0,2.74-0.35,3.57-0.77v-1.49
		c-0.94,0.42-2.06,0.74-3.24,0.74c-2.34,0-3.7-1.25-3.72-3.72h7.29v-0.94C258.49,132.34,257,130.28,254.13,130.28z M251.2,135.14
		c0.07-1.97,1.14-3.35,2.98-3.35c1.64,0,2.56,1.2,2.56,3.35H251.2z"/>
	<path class="st1" d="M262.71,132.45h-0.04v-1.97h-1.77v11.01h1.93v-7.79c1.16-1.03,2.52-1.58,3.83-1.58v-1.86
		C265.23,130.26,264.07,130.9,262.71,132.45z"/>
	<path class="st1" d="M269.76,133.39c0-1.2,0.83-1.68,2.1-1.68c0.83,0,1.66,0.22,2.36,0.57v-1.51c-0.57-0.24-1.51-0.48-2.63-0.48
		c-2.17,0-3.74,0.96-3.74,3.09c0,3.85,4.95,2.82,4.95,5.14c0,1.49-1.01,1.86-2.15,1.86c-1.03,0-1.97-0.31-2.87-0.7v1.53
		c0.96,0.39,2.15,0.57,3.04,0.57c2.12,0,3.92-0.9,3.92-3.22C274.75,134.71,269.76,135.84,269.76,133.39z"/>
</g>
<g>
	<path class="st1" d="M233.63,47.34c0-0.35,0-0.64,0-0.93c-0.02-1.24-0.07-2.47-0.06-3.71c0.01-1.08-0.38-1.98-1.11-2.72
		c-0.72-0.73-1.5-1.4-2.25-2.11c-0.17-0.16-0.35-0.31-0.48-0.49c-0.13-0.18-0.25-0.41-0.1-0.64c0.15-0.23,0.39-0.22,0.63-0.17
		c0.64,0.13,1.28,0.23,1.9,0.41c2.03,0.59,4.06,1.22,6,2.09c0.11,0.05,0.23,0.09,0.34,0.16c0.35,0.2,0.43,0.35,0.28,0.72
		c-0.49,1.23-0.59,2.52-0.59,3.83c0,5.71,0,11.41-0.01,17.12c0,0.48-0.04,0.96-0.11,1.44c-0.22,1.42-1.54,2.39-2.96,2.22
		c-0.12-0.02-0.25-0.03-0.38-0.04c-0.73-0.1-1.03-0.41-1.1-1.14c-0.01-0.14-0.02-0.28-0.04-0.46c-3.45,0-6.86,0-10.27,0
		c-0.13,0.43-0.17,7.91-0.05,8.78c0.28,0,0.57,0.01,0.85,0c2.5-0.05,4.99-0.1,7.49-0.17c2.66-0.08,5.33-0.17,7.99-0.27
		c1.82-0.07,3.57-0.47,5.19-1.34c0.53-0.28,1.05-0.32,1.63-0.17c2.55,0.66,4.96,1.68,7.32,2.82c0.28,0.14,0.54,0.32,0.78,0.52
		c0.72,0.62,0.57,1.52-0.3,1.9c-0.6,0.26-1.23,0.21-1.86,0.18c-1.26-0.06-2.51-0.16-3.77-0.2c-2.73-0.07-5.45-0.11-8.18-0.17
		c-0.99-0.02-1.97-0.07-2.96-0.06c-3.97,0.03-7.93,0.07-11.9,0.12c-1.3,0.02-2.6,0.05-3.9,0.09c-3.36,0.09-6.71,0.18-10.07,0.28
		c-2.14,0.06-4.28,0.12-6.42,0.24c-2.01,0.11-4.01,0.3-6.02,0.46c-1.44,0.12-2.87,0.34-4.27,0.74c-0.49,0.14-0.97,0.01-1.4-0.23
		c-1.01-0.56-2.02-1.11-2.99-1.73c-0.92-0.59-1.79-1.25-2.67-1.89c-0.28-0.21-0.54-0.47-0.78-0.73c-0.25-0.27-0.38-0.6-0.21-0.99
		c0.33-0.16,0.66-0.09,0.98-0.02c1.95,0.44,3.93,0.62,5.92,0.74c5.28,0.32,10.57,0.23,15.86,0.19c2.43-0.02,4.87-0.08,7.3-0.13
		c0.52-0.01,1.04-0.06,1.59-0.09c0-2.97,0-5.9,0-8.87c-3.47,0-6.93,0-10.41,0c-0.06,0.14-0.13,0.29-0.19,0.44
		c-0.43,1.09-1.53,1.66-2.74,1.57c-0.13-0.01-0.25-0.02-0.38-0.04c-0.65-0.09-1.02-0.46-1.09-1.1c-0.03-0.23-0.01-0.46-0.01-0.69
		c0-6.29-0.01-12.58,0-18.88c0-1.3-0.42-2.37-1.39-3.23c-0.72-0.64-1.42-1.31-2.12-1.97c-0.06-0.06-0.13-0.11-0.19-0.17
		c-0.31-0.32-0.41-0.61-0.27-0.83c0.2-0.31,0.52-0.24,0.8-0.18c2.71,0.6,5.34,1.45,7.88,2.57c0.22,0.1,0.4,0.26,0.63,0.41
		c-0.92,2.13-0.76,4.31-0.78,6.52C216.71,47.34,225.12,47.34,233.63,47.34z M208.27,59.41c8.46,0,16.88,0,25.31,0
		c0-2.89,0-5.73,0-8.57c-8.46,0-16.86,0-25.31,0C208.27,53.7,208.27,56.54,208.27,59.41z"/>
	<path class="st1" d="M86.13,42.95c-0.22,0.73-0.45,1.36-0.58,2.01c-0.14,0.67-0.24,1.37-0.24,2.06
		c-0.02,6.61-0.02,13.21-0.03,19.82c0,0.16,0.03,0.32,0.04,0.52c3.01,0,5.98,0,8.98,0c0.01-0.18,0.04-0.34,0.04-0.51
		c0-8.66,0-17.33,0-25.99c0-0.99-0.26-1.91-0.86-2.71c-0.84-1.1-1.71-2.18-2.56-3.26c-0.14-0.18-0.31-0.35-0.43-0.54
		c-0.11-0.2-0.22-0.43-0.04-0.65c0.17-0.21,0.41-0.19,0.64-0.12c0.62,0.2,1.24,0.38,1.84,0.63c2.14,0.87,4.2,1.91,6.16,3.14
		c0.24,0.15,0.46,0.35,0.66,0.5c-0.01,0.14,0.01,0.21-0.02,0.26c-0.68,1.42-0.83,2.94-0.83,4.47C98.9,53.66,98.9,64.73,98.9,75.81
		c0,8.7,0,17.41,0,26.11c0,0.7-0.07,1.38-0.4,2.01c-0.62,1.22-2.4,1.77-3.6,1.11c-0.35-0.19-0.49-0.51-0.55-0.87
		c-0.03-0.23-0.02-0.46-0.02-0.69c0-10.55,0-21.1,0-31.65c0-0.27,0-0.54,0-0.8c-0.5-0.14-8.35-0.16-9.07-0.02c0,0.25,0,0.52,0,0.78
		c0,8.45,0,16.91-0.01,25.36c0,0.6-0.06,1.22-0.24,1.79c-0.48,1.58-2.07,1.98-3.43,1.56c-0.45-0.14-0.75-0.46-0.79-0.96
		c-0.02-0.27-0.04-0.54-0.04-0.82c0-17.07,0-34.15,0-51.22c0-0.63-0.01-1.26-0.02-1.89c-0.02-0.82-0.24-1.57-0.71-2.24
		c-0.84-1.2-1.7-2.4-2.74-3.44c-0.15-0.15-0.31-0.31-0.37-0.5c-0.06-0.2-0.08-0.47,0.01-0.64c0.11-0.22,0.38-0.21,0.62-0.13
		c0.6,0.2,1.21,0.36,1.78,0.61c2.1,0.92,4.17,1.89,6.09,3.15C85.69,42.59,85.92,42.79,86.13,42.95z"/>
	<path class="st1" d="M124.83,87.87c0.21-0.24,0.45-0.32,0.75-0.28c1.72,0.22,3.45,0.42,5.17,0.66c0.95,0.13,1.9,0.33,2.85,0.48
		c0.23,0.04,0.46,0.04,0.69,0.04c2.73-0.01,5.46-0.01,8.19-0.03c5.6-0.03,11.21-0.07,16.81-0.12c0.33,0,0.67-0.06,1-0.08
		c0.36-0.03,0.51-0.25,0.55-0.57c0.04-0.31,0.07-0.62,0.09-0.94c0.1-1.86,0.2-3.73,0.29-5.59c0.01-0.12-0.02-0.25-0.03-0.45
		c-0.25-0.03-0.48-0.08-0.72-0.08c-0.96,0.01-1.93,0.05-2.89,0.06c-4.41,0.06-8.81,0.11-13.22,0.17c-2.25,0.03-4.49,0.08-6.73,0.12
		c-1.6,0.03-3.16,0.36-4.7,0.76c-0.62,0.16-1.19,0.12-1.76-0.17c-1.82-0.92-3.54-2-5.03-3.41c-0.3-0.29-0.53-0.6-0.35-1.14
		c0.18-0.01,0.4-0.07,0.6-0.04c1.7,0.21,3.4,0.5,5.11,0.64c1.5,0.13,3.02,0.16,4.53,0.15c4.95-0.03,9.91-0.08,14.86-0.14
		c1.66-0.02,3.32-0.06,4.97-0.11c1.26-0.04,2.51-0.14,3.77-0.2c0.56-0.02,1.06-0.2,1.55-0.47c0.23-0.12,0.51-0.2,0.77-0.19
		c0.89,0.02,4.08,0.94,5.02,1.42c-0.04,0.23-0.05,0.5-0.13,0.75c-0.81,2.55-1.14,5.19-1.55,7.82c-0.07,0.45-0.15,0.91-0.24,1.45
		c0.23,0.2,0.49,0.43,0.75,0.66c0.29,0.26,0.63,0.5,0.87,0.81c0.59,0.75,0.25,1.71-0.68,1.96c-0.28,0.07-0.58,0.12-0.87,0.12
		c-1.11,0.02-2.22,0.01-3.34,0.02c-9.13,0.05-18.26,0.09-27.39,0.14c-0.21,0-0.41,0-0.66,0c-0.02,0.21-0.06,0.36-0.06,0.52
		c0,1.99,0,3.99,0,5.98c0,0.19,0,0.38,0.03,0.56c0.09,0.49,0.34,0.86,0.87,0.96c0.53,0.1,1.07,0.22,1.61,0.22
		c7.45,0.02,14.9,0.01,22.35,0.02c1.3,0,2.53-0.25,3.71-0.83c1.53-0.75,1.05-0.7,2.82-0.27c1.91,0.47,3.76,1.18,5.47,2.19
		c0.23,0.13,0.46,0.31,0.6,0.52c0.33,0.47,0.2,0.89-0.31,1.13c-0.24,0.12-0.51,0.21-0.78,0.25c-0.77,0.11-1.54,0.27-2.31,0.27
		c-11.15,0.02-22.29,0.02-33.44,0.01c-1.13,0-2.26-0.16-3.29-0.68c-1.03-0.51-1.65-1.34-1.88-2.45c-0.1-0.47-0.14-0.95-0.14-1.43
		c-0.02-2.03,0-4.07-0.01-6.1c0-0.42-0.04-0.84-0.12-1.25c-0.12-0.59-0.43-1.1-0.94-1.44c-0.84-0.56-1.69-1.08-2.54-1.62
		C125.08,88.49,124.76,88.34,124.83,87.87z"/>
	<path class="st1" d="M239.07,83.66c-0.15,0.56-0.26,1.07-0.44,1.56c-0.43,1.16-0.48,2.37-0.56,3.58c-0.1,1.63-0.22,3.26-0.33,4.89
		c-0.05,0.79-0.1,1.59-0.14,2.39c-0.06,1.15-0.1,2.3-0.18,3.45c-0.03,0.44,0.15,0.7,0.49,0.94c0.34,0.24,0.67,0.5,0.96,0.8
		c0.4,0.4,0.54,0.89,0.33,1.44c-0.2,0.53-0.63,0.77-1.16,0.82c-0.46,0.05-0.92,0.09-1.38,0.09c-8.92,0.01-17.84,0-26.76,0
		c-0.27,0-0.54,0-0.83,0c-0.04,0.16-0.07,0.28-0.1,0.39c-0.37,1.36-1.32,1.7-2.52,1.7c-0.19,0-0.38-0.03-0.56-0.06
		c-0.68-0.1-1.09-0.52-1.18-1.2c-0.01-0.1-0.01-0.21-0.02-0.31c-0.04-1.17-0.08-2.35-0.12-3.52c-0.06-2.07-0.11-4.15-0.17-6.22
		c-0.08-2.45-0.16-4.9-0.26-7.35c-0.01-0.4-0.05-0.8-0.13-1.19c-0.13-0.63-0.52-1.11-1.04-1.45c-0.72-0.47-1.48-0.87-2.22-1.31
		c-0.22-0.13-0.44-0.24-0.65-0.38c-0.19-0.12-0.27-0.32-0.22-0.55c0.06-0.24,0.24-0.33,0.47-0.33c0.65,0.01,1.31-0.02,1.95,0.04
		c1.73,0.17,3.47,0.31,5.18,0.61c1.59,0.28,3.17,0.24,4.76,0.25c6.38,0.01,12.76,0,19.14,0.01c0.75,0,1.46-0.05,2.08-0.53
		c0.29-0.23,0.65-0.16,0.97-0.09c0.59,0.13,1.18,0.28,1.76,0.45c0.78,0.24,1.55,0.51,2.32,0.78
		C238.71,83.44,238.85,83.54,239.07,83.66z M208.85,86.2c0,0.28,0,0.53,0,0.77c0.05,3.9,0.1,7.8,0.15,11.7c0,0.31,0,0.63,0.01,0.94
		c0.01,0.16,0.04,0.32,0.06,0.52c0.27,0,0.5,0,0.73,0c7.32,0,14.65,0,21.97,0c0.25,0,0.5,0,0.76-0.02c0.44-0.04,0.59-0.17,0.68-0.6
		c0.03-0.16,0.04-0.33,0.05-0.5c0.05-1.87,0.11-3.73,0.13-5.6c0.03-2.2,0.03-4.4,0.04-6.61c0-0.2-0.03-0.4-0.05-0.62
		C225.18,86.2,217.04,86.2,208.85,86.2z"/>
	<path class="st1" d="M67.27,50.58c-1.92,3.75-3.83,7.45-5.75,11.21c0.05,0.08,0.11,0.21,0.2,0.33c2.38,3.14,4.76,6.29,7.16,9.42
		c0.97,1.27,2.08,2.42,3.45,3.28c0.7,0.44,0.98,1.19,1.29,1.89c0.7,1.6,1.19,3.27,1.43,5c0.05,0.36,0.02,0.76-0.05,1.12
		c-0.1,0.5-0.49,0.73-0.99,0.61c-0.28-0.07-0.57-0.19-0.79-0.37c-0.39-0.32-0.78-0.65-1.08-1.05c-2.36-3.13-4.71-6.27-7.05-9.42
		c-1.73-2.32-3.44-4.66-5.16-6.98c-0.12-0.16-0.25-0.32-0.41-0.52c-0.13,0.18-0.23,0.31-0.32,0.45c-1.69,2.68-3.58,5.23-5.66,7.62
		c-2.63,3.02-5.58,5.69-8.97,7.85c-0.83,0.53-1.67,1.04-2.54,1.52c-0.36,0.2-0.78,0.3-1.19,0.37c-0.32,0.06-0.64-0.02-0.78-0.37
		c-0.14-0.32,0.01-0.57,0.24-0.78c0.39-0.35,0.77-0.71,1.18-1.04c1.64-1.35,3.12-2.86,4.56-4.42c2.74-2.97,5.13-6.2,7.32-9.59
		c2.94-4.54,5.42-9.31,7.25-14.41c0.08-0.22,0.15-0.44,0.2-0.66c0.13-0.55,0.09-1.05-0.31-1.53c-0.75-0.91-1.45-1.85-2.17-2.78
		c-0.09-0.12-0.18-0.23-0.26-0.35c-0.13-0.21-0.18-0.43-0.01-0.64c0.15-0.19,0.36-0.19,0.57-0.12c0.65,0.23,1.32,0.43,1.95,0.71
		c2.11,0.94,4.18,1.96,6.14,3.19c0.12,0.08,0.25,0.16,0.36,0.25C67.13,50.41,67.18,50.49,67.27,50.58z"/>
	<path class="st1" d="M178.9,69.77c-2.79-0.11-5.57-0.24-8.36-0.31c-2.5-0.06-5-0.06-7.49-0.06c-2.85,0-5.71,0.01-8.56,0.04
		c-2.39,0.03-4.78,0.07-7.18,0.13c-2.81,0.07-5.62,0.16-8.43,0.25c-2.33,0.07-4.66,0.13-6.98,0.25c-1.99,0.11-3.97,0.28-5.96,0.46
		c-1.04,0.09-2.08,0.24-3.12,0.39c-0.41,0.06-0.83,0.15-1.22,0.28c-0.71,0.23-1.38,0.12-2-0.24c-1.26-0.75-2.53-1.48-3.75-2.3
		c-0.82-0.54-1.56-1.19-2.31-1.83c-0.19-0.16-0.33-0.44-0.4-0.68c-0.1-0.34,0.06-0.51,0.42-0.52c0.19,0,0.38,0.02,0.56,0.07
		c1.74,0.39,3.51,0.57,5.29,0.71c3.52,0.29,7.04,0.25,10.57,0.24c2.64,0,5.29-0.01,7.93-0.04c2.41-0.03,4.83-0.08,7.24-0.14
		c3.38-0.08,6.75-0.16,10.13-0.25c2.64-0.07,5.28-0.16,7.93-0.26c1.28-0.05,2.55-0.13,3.83-0.21c1.23-0.08,2.4-0.38,3.5-0.92
		c1.33-0.65,1.34-0.69,2.74-0.31c1.07,0.29,2.12,0.67,3.15,1.07c1.11,0.43,2.2,0.94,3.29,1.42c0.32,0.14,0.64,0.32,0.93,0.53
		c0.21,0.16,0.41,0.37,0.53,0.6c0.31,0.59,0.1,1.11-0.5,1.41C180.11,69.86,179.5,69.8,178.9,69.77z"/>
	<path class="st1" d="M123.1,39.85c0.21-0.36,0.53-0.28,0.84-0.24c2.08,0.28,4.13,0.71,6.14,1.31c0.7,0.21,1.4,0.45,2.08,0.71
		c0.54,0.2,0.61,0.37,0.4,0.91c-0.37,0.97-0.53,1.98-0.53,3.01c-0.01,2.75-0.02,5.49-0.02,8.24c0,0.82,0.19,1.09,1.01,1.27
		c0.57,0.13,1.16,0.22,1.74,0.22c5.2,0.01,10.41,0,15.61-0.02c1.68-0.01,3.36-0.05,5.03-0.09c1.24-0.03,2.5-0.12,3.61-0.72
		c1.03-0.56,2.05-0.57,3.09-0.25c1.68,0.52,3.34,1.1,5,1.69c0.39,0.14,0.76,0.37,1.08,0.63c0.74,0.6,0.65,1.25-0.25,1.52
		c-0.73,0.22-1.51,0.38-2.28,0.41c-2.37,0.08-4.74,0.11-7.11,0.13c-5.33,0.03-10.66,0.03-15.99,0.05c-2.69,0.01-5.37,0.08-8.06,0.07
		c-1.13,0-2.26-0.1-3.38-0.24c-0.61-0.08-1.23-0.29-1.79-0.54c-1.16-0.52-1.8-1.47-1.95-2.73c-0.06-0.54-0.1-1.09-0.11-1.63
		c-0.01-2.56-0.06-5.12,0-7.67c0.03-1.6-0.61-2.78-1.83-3.72c-0.63-0.49-1.24-1-1.88-1.48C123.26,40.46,123.06,40.23,123.1,39.85z"
		/>
</g>
</svg>
