<?xml version="1.0" encoding="utf-8"?>
<!-- Generator: Adobe Illustrator 24.1.2, SVG Export Plug-In . SVG Version: 6.00 Build 0)  -->
<svg version="1.1" id="Layer_1" xmlns="http://www.w3.org/2000/svg" xmlns:xlink="http://www.w3.org/1999/xlink" x="0px" y="0px"
	 viewBox="0 0 30 30" style="enable-background:new 0 0 30 30;" xml:space="preserve">
<style type="text/css">
	.st0{fill:#595959;}
	.st1{fill:none;}
	.st2{fill:none;}
</style>
<g>
	<g>
		<path class="st0" d="M14.84,14.73c9.23,0,11.09,8.41,11.29,14.16H3.89c0.17-3.38,1.09-6.66,2.59-9.16
			C8.47,16.42,11.29,14.73,14.84,14.73 M14.84,13.63C6.13,13.63,2.76,22.95,2.76,30h24.49C27.24,22.95,24.99,13.63,14.84,13.63
			L14.84,13.63z"/>
	</g>
	<g>
		<circle class="st1" cx="15" cy="6.07" r="6.07"/>
		<path class="st0" d="M15,1.1c2.74,0,4.97,2.23,4.97,4.97s-2.23,4.97-4.97,4.97s-4.97-2.23-4.97-4.97S12.26,1.1,15,1.1 M15,0
			c-3.35,0-6.07,2.72-6.07,6.07c0,3.35,2.72,6.07,6.07,6.07s6.07-2.72,6.07-6.07C21.07,2.72,18.35,0,15,0L15,0z"/>
	</g>
</g>
</svg>
